<?xml version="1.0" encoding="UTF-8" standalone="no"?>
<!-- Generator: Adobe Illustrator 24.3.0, SVG Export Plug-In . SVG Version: 6.00 Build 0)  -->

<svg
   version="1.1"
   id="Layer_1"
   x="0px"
   y="0px"
   viewBox="0 0 755.90551 226.77164"
   xml:space="preserve"
   sodipodi:docname="notfound_recorted10.svg"
   inkscape:version="1.1.1 (3bf5ae0d25, 2021-09-20)"
   width="755.90552"
   height="226.77165"
   xmlns:inkscape="http://www.inkscape.org/namespaces/inkscape"
   xmlns:sodipodi="http://sodipodi.sourceforge.net/DTD/sodipodi-0.dtd"
   xmlns="http://www.w3.org/2000/svg"
   xmlns:svg="http://www.w3.org/2000/svg"><defs
   id="defs273" /><sodipodi:namedview
   id="namedview271"
   pagecolor="#ffffff"
   bordercolor="#666666"
   borderopacity="1.0"
   inkscape:pageshadow="2"
   inkscape:pageopacity="0.0"
   inkscape:pagecheckerboard="0"
   showgrid="false"
   inkscape:zoom="0.69077047"
   inkscape:cx="374.94365"
   inkscape:cy="57.182525"
   inkscape:window-width="1366"
   inkscape:window-height="705"
   inkscape:window-x="-8"
   inkscape:window-y="-8"
   inkscape:window-maximized="1"
   inkscape:current-layer="Layer_1" />
<style
   type="text/css"
   id="style142">
	.st0{opacity:0.15;fill:#3CA4FF;enable-background:new    ;}
	.st1{opacity:0.43;}
	.st2{fill:#3CA4FF;}
	.st3{fill:#5E349D;}
	.st4{fill:#D3D3D3;}
	.st5{opacity:0.4;}
	.st6{opacity:0.66;fill:#006ED0;enable-background:new    ;}
	.st7{fill:none;stroke:#FFFEFE;stroke-width:2;stroke-miterlimit:10;}
	.st8{fill:#FAB9AF;}
	.st9{fill:#0E538C;}
	.st10{fill:#15293F;}
	.st11{opacity:7.000000e-02;enable-background:new    ;}
	.st12{fill:#FFFFFF;}
	.st13{fill:#006ED0;}
	.st14{fill:#E8948B;}
</style>
<path
   class="st0"
   d="m 51.78192,210.09727 c 0,-91.49163 141.3407,-165.632242 315.75916,-165.632242 174.41849,0 315.85132,74.140612 315.85132,165.632242"
   id="path144"
   style="stroke-width:0.667327" />
<g
   class="st1"
   id="g150"
   transform="matrix(0.92138651,0,0,0.48331555,-23.587495,-13.67783)">
	<g
   id="g148">
		<path
   class="st2"
   d="m 89.5,464.7 c 0,0 79.4,-189.4 107.9,-171.9 28.5,17.5 95.7,171.9 95.7,171.9 z"
   id="path146" />
	</g>
</g>
<g
   class="st1"
   id="g156"
   transform="matrix(0.92138651,0,0,0.48331555,-23.587495,-13.67783)">
	<g
   id="g154">
		<path
   class="st2"
   d="m 773.9,464.7 c 0,0 -72.6,-181.4 -98.7,-164.6 -26,16.8 -87.5,164.6 -87.5,164.6 z"
   id="path152" />
	</g>
</g>
<g
   id="g160"
   transform="matrix(0.92138651,0,0,0.48331555,-23.587495,-13.67783)">
	<path
   class="st3"
   d="m 439.9,468 h -50.4 c -1.8,0 -3.3,-1.5 -3.3,-3.3 0,-1.8 1.5,-3.3 3.3,-3.3 h 50.4 c 1.8,0 3.3,1.5 3.3,3.3 0,1.8 -1.5,3.3 -3.3,3.3 z"
   id="path158" />
</g>
<g
   id="g164"
   transform="matrix(0.92138651,0,0,0.48331555,-23.587495,-13.67783)">
	<path
   class="st4"
   d="m 411.6,208.3 c 0,1.2 -1,2.2 -2.2,2.2 -1.2,0 -2.2,-1 -2.2,-2.2 0,-1.2 1,-2.2 2.2,-2.2 1.2,0 2.2,0.9 2.2,2.2 z"
   id="path162" />
</g>
<g
   class="st5"
   id="g168"
   transform="matrix(0.92138651,0,0,0.48331555,-23.587495,-13.67783)">
	<path
   class="st4"
   d="M 771,100.5 H 543.6 c -7.8,0 -14.2,-6.4 -14.2,-14.2 v 0 c 0,-7.8 6.4,-14.2 14.2,-14.2 H 771 c 7.8,0 14.2,6.4 14.2,14.2 v 0 c 0,7.8 -6.4,14.2 -14.2,14.2 z"
   id="path166" />
</g>
<g
   class="st5"
   id="g172"
   transform="matrix(0.92138651,0,0,0.48331555,-23.587495,-13.67783)">
	<path
   class="st4"
   d="M 322.3,82.8 H 184.7 c -7.8,0 -14.2,-6.4 -14.2,-14.2 v 0 c 0,-7.8 6.4,-14.2 14.2,-14.2 h 137.6 c 7.8,0 14.2,6.4 14.2,14.2 v 0 c 0,7.8 -6.4,14.2 -14.2,14.2 z"
   id="path170" />
</g>
<g
   class="st5"
   id="g176"
   transform="matrix(0.92138651,0,0,0.48331555,-23.587495,-13.67783)">
	<path
   class="st4"
   d="M 656.5,56.7 H 518.9 c -7.8,0 -14.2,-6.4 -14.2,-14.2 v 0 c 0,-7.8 6.4,-14.2 14.2,-14.2 h 137.6 c 7.8,0 14.2,6.4 14.2,14.2 v 0 c 0,7.8 -6.4,14.2 -14.2,14.2 z"
   id="path174" />
</g>
<g
   class="st5"
   id="g180"
   transform="matrix(0.92138651,0,0,0.48331555,-23.587495,-13.67783)">
	<path
   class="st4"
   d="M 183.4,140.8 H 45.9 c -7.8,0 -14.2,-6.4 -14.2,-14.2 v 0 c 0,-7.8 6.4,-14.2 14.2,-14.2 h 137.6 c 7.8,0 14.2,6.4 14.2,14.2 v 0 c 0,7.8 -6.4,14.2 -14.3,14.2 z"
   id="path178" />
</g>
<g
   class="st5"
   id="g184"
   transform="matrix(0.92138651,0,0,0.48331555,-23.587495,-13.67783)">
	<path
   class="st4"
   d="M 734.1,234.4 H 596.5 c -7.8,0 -14.2,-6.4 -14.2,-14.2 v 0 c 0,-7.8 6.4,-14.2 14.2,-14.2 h 137.6 c 7.8,0 14.2,6.4 14.2,14.2 v 0 c 0,7.8 -6.4,14.2 -14.2,14.2 z"
   id="path182" />
</g>
<g
   class="st5"
   id="g188"
   transform="matrix(0.92138651,0,0,0.48331555,-23.587495,-13.67783)">
	<path
   class="st4"
   d="m 252.1,248.7 h -175 c -6.9,0 -12.6,-5.7 -12.6,-12.6 v -3.3 c 0,-6.9 5.7,-12.6 12.6,-12.6 h 175 c 6.9,0 12.6,5.7 12.6,12.6 v 3.3 c 0,6.9 -5.6,12.6 -12.6,12.6 z"
   id="path186" />
</g>
<path
   class="st4"
   d="m 755.90551,217.347 c 0,5.21981 -8.01607,9.42465 -17.967,9.42465 H 17.967037 C 8.016063,226.77165 0,222.56681 0,217.347 v 0 c 0,-5.2198 8.016063,-9.42465 17.967037,-9.42465 H 738.03065 c 9.85879,0 17.87486,4.25317 17.87486,9.42465 z"
   id="path190"
   style="stroke-width:0.667327" />
<path
   class="st6"
   d="m 94.81067,169.20878 c 0,0 -14.28148,26.53402 20.7312,27.45232 35.01269,0.9183 29.57651,-17.54436 23.49536,-24.79408 -6.08115,-7.24974 40.17246,-32.72047 -10.13525,-46.44663 -50.30771,-13.7745 -67.81405,37.40862 -34.09131,43.78839 z"
   id="path192"
   style="stroke-width:0.667327" />
<path
   class="st6"
   d="m 34.459857,179.55173 c 0,0 -10.22739,15.36943 10.319533,16.57773 20.63905,1.20828 18.70414,-9.76299 15.57143,-14.16115 -3.13271,-4.39817 25.9831,-18.51099 -2.76416,-27.59732 -28.747262,-9.08634 -42.568058,20.8309 -23.126803,25.18074 z"
   id="path194"
   style="stroke-width:0.667327" />
<path
   class="st6"
   d="m 673.07287,169.20878 c 0,0 -14.28148,26.53402 20.73121,27.45232 35.01265,0.9183 29.5765,-17.54436 23.49536,-24.79408 -6.08114,-7.24974 40.17243,-32.72047 -10.13529,-46.44663 -50.30768,-13.7745 -67.81403,37.40862 -34.09128,43.78839 z"
   id="path196"
   style="stroke-width:0.667327" />
<path
   class="st6"
   d="m 612.72205,179.55173 c 0,0 -10.22738,15.36943 10.31954,16.57773 20.63905,1.20828 18.70415,-9.76299 15.57143,-14.16115 -3.13272,-4.39817 25.9831,-18.51099 -2.76415,-27.59732 -28.74727,-9.08634 -42.56807,20.8309 -23.12682,25.18074 z"
   id="path198"
   style="stroke-width:0.667327" />
<g
   id="g220"
   transform="matrix(0.92138651,0,0,0.48331555,-23.587495,-13.67783)">
	<line
   class="st7"
   x1="76"
   y1="369.70001"
   x2="76.400002"
   y2="458.79999"
   id="line200" />
	<polyline
   class="st7"
   points="86,390.9 76.2,402.8 65.7,392.1  "
   id="polyline202" />
	<line
   class="st7"
   x1="148.10001"
   y1="320.89999"
   x2="149.5"
   y2="456"
   id="line204" />
	<polyline
   class="st7"
   points="165.3,338.3 148.4,353.6 133.1,339.5  "
   id="polyline206" />
	<polyline
   class="st7"
   points="165.2,366.7 148.3,382 133,367.9  "
   id="polyline208" />
	<line
   class="st7"
   x1="703.59998"
   y1="369.70001"
   x2="704"
   y2="458.79999"
   id="line210" />
	<polyline
   class="st7"
   points="713.6,390.9 703.8,402.8 693.3,392.1  "
   id="polyline212" />
	<line
   class="st7"
   x1="775.70001"
   y1="320.89999"
   x2="777.09998"
   y2="456"
   id="line214" />
	<polyline
   class="st7"
   points="792.9,338.3 776,353.6 760.7,339.5  "
   id="polyline216" />
	<polyline
   class="st7"
   points="792.8,366.7 775.9,382 760.6,367.9  "
   id="polyline218" />
</g>
<g
   id="g262"
   transform="matrix(0.92138651,0,0,0.48331555,-23.587495,-13.67783)">
	<g
   id="g258">
		<polygon
   class="st8"
   points="452.4,333.4 442,260.9 414.2,257.1 399.7,332.9 "
   id="polygon222" />
		<path
   class="st9"
   d="m 430.9,445.7 v 8.2 c 0,1.7 -0.2,3.3 -0.7,4.9 l -0.7,2.5 c -0.6,2.1 1,4.1 3.1,4.1 5.6,0 15.1,0 17.5,0 0.4,0 0.8,-0.3 0.8,-0.7 0.2,-2.4 -6.7,-4 -11.9,-6 -4,-1.5 -3.7,-8.6 -3.3,-12.8 0.2,-1.6 -1.1,-2.9 -2.7,-2.8 v 0 c -1.2,0.2 -2.2,1.3 -2.1,2.6 z"
   id="path224" />
		<path
   class="st9"
   d="m 392.6,443.4 -2.8,9.3 c -0.1,0.4 -0.3,0.8 -0.6,1.2 l -2,3 c -1.3,1.9 -0.4,4.5 1.8,5.1 0,0 4,1.4 8.2,2.8 4.2,1.4 9.6,0.2 9.6,-0.9 0,-2.5 -2.3,-0.5 -6.2,-3.1 -1.3,-0.9 -2.6,-1.8 -3.8,-2.7 -3.3,-2.6 -0.4,-9.3 1.6,-13 0.7,-1.3 0,-3 -1.5,-3.3 l -1,-0.2 c -1.5,-0.4 -2.9,0.4 -3.3,1.8 z"
   id="path226" />
		<path
   class="st10"
   d="m 421.4,334.1 30.8,-2.6 c 0,0 3.1,22.4 -4.7,63.1 -3.7,19.1 -11.3,55.5 -11.3,55.5 -1.9,0.8 -3.8,1 -5.8,0.5 0,0 -0.6,-16.1 -0.9,-33.4 -0.3,-16.6 -0.4,-34.3 -1.5,-40.1 -2.1,-11.8 -6.6,-43 -6.6,-43 z"
   id="path228" />
		<path
   class="st11"
   d="m 421.4,334.1 30.8,-2.6 c 0,0 3.1,22.4 -4.7,63.1 -3.7,19.1 -11.3,55.5 -11.3,55.5 -1.9,0.8 -3.8,1 -5.8,0.5 0,0 -0.6,-16.1 -0.9,-33.4 -0.3,-16.6 -0.4,-34.3 -1.5,-40.1 -2.1,-11.8 -6.6,-43 -6.6,-43 z"
   id="path230" />
		<path
   class="st10"
   d="m 427.7,334.5 c 3.2,17.1 10.3,42.6 -3.4,66.7 -13.7,24 -28.1,49 -28.1,49 -1.9,0.1 -3.5,-0.6 -5.1,-1.8 0,0 2.4,-10.9 5.9,-23.6 4,-14.5 9,-31.6 7.6,-40.6 -2.7,-16.7 -5.8,-39 -4.8,-49.8 0.9,-10.8 26.3,-8.9 27.9,0.1 z"
   id="path232" />
		<path
   class="st11"
   d="m 427.7,334.5 c 3.2,17.1 10.3,42.6 -3.4,66.7 -13.7,24 -28.1,49 -28.1,49 -1.9,0.1 -3.5,-0.6 -5.1,-1.8 0,0 2.4,-10.9 5.9,-23.6 4,-14.5 9,-31.6 7.6,-40.6 -2.7,-16.7 -5.8,-39 -4.8,-49.8 0.9,-10.8 26.3,-8.9 27.9,0.1 z"
   id="path234" />
		<path
   class="st12"
   d="m 453.4,331.5 -11.4,-70.6 -27.8,-3.8 -15,74.6 c -0.3,1.4 0.6,2.8 2,3 5.2,1 17.7,3 31.7,3 10.4,0 16.3,-2 19,-3.3 1.1,-0.5 1.7,-1.7 1.5,-2.9 z"
   id="path236" />
		<path
   class="st13"
   d="m 422.9,261.5 c 0,5.1 -0.9,10.1 -2.7,14.9 -3.4,9.4 -8.5,27.1 -5.5,42.6 4.4,22.4 10,31.5 2.7,36.8 -7.3,5.2 -21.2,-3.5 -21.6,-6.4 -0.4,-2.9 2.7,-38.7 6.2,-54.1 3.5,-15.4 13.4,-37.8 13.4,-37.8 l 4.2,0.4 c 1.9,0.2 3.3,1.7 3.3,3.6 z"
   id="path238" />
		<path
   class="st13"
   d="m 434.5,259.9 c 0,0 4.8,10.4 3.1,25.4 -1.7,15 -5.6,60.6 8.1,67.5 4.3,2.2 14.2,-7.5 14.2,-11.1 0,-3.6 -3.3,-15.6 -6.4,-26.5 C 450.4,304.3 442.8,261 442.8,261 Z"
   id="path240" />
		<g
   id="g248">
			<path
   class="st8"
   d="m 430.6,227.5 c -6.2,0 -8.5,4.4 -8.6,12.6 0,3.1 1.3,6.1 2.4,8 0.8,1.4 1,3.1 0.6,4.7 l -1.4,4.6 c -0.9,4.3 1.1,6.6 4.1,7.5 1.5,0.4 3.3,0.1 4.6,-0.7 1.5,-1 1.7,-3.1 1.4,-5 l -0.4,-1.3 c -0.5,-1.8 0.6,-3.7 2.3,-4.1 4.8,-1 5.5,-6 6.8,-13.8 1.4,-7.9 -5.6,-12.5 -11.8,-12.5 z"
   id="path242" />
			<path
   d="m 430.4,223 c -4.3,0 -11.4,2.4 -10.5,8.7 l 0.8,4.4 c 0.3,1.8 1.8,3.1 3.6,3.2 v 0 c 0.2,0.6 0.7,1 1.3,1 0.8,0 1.4,-0.6 1.4,-1.4 v 0 c 0,-2 1.4,-3.7 3.3,-4.1 2.4,-0.5 4.9,-0.7 7.6,0.1 4.9,1.3 10.6,-6.8 10.7,-6.8 0,0 -2.5,1.9 -7.3,0.1 -5,-1.9 -3,-5.5 -10.9,-5.2 z"
   id="path244" />
			<path
   class="st8"
   d="m 425.4,240.3 c 0,1.9 -0.7,3.4 -2.5,3.4 -1.8,0 -3,-2.6 -3,-4.5 0,-1.9 1.2,-2.4 3,-2.4 1.8,0 2.5,1.6 2.5,3.5 z"
   id="path246" />
		</g>
		<path
   class="st13"
   d="m 416,237.4 c 0,0 -0.7,1.6 -2.2,3.7 -0.8,1.1 -1.8,2.3 -3,3.7 -1.2,1.4 -2.6,2.9 -4.2,4.5 -1.5,1.6 -3.2,3.4 -4.9,5.3 -1.7,1.9 -3.4,4 -5,6.2 -1.5,2.3 -3,4.6 -4.1,7.1 -0.5,1.2 -1,2.4 -1.3,3.6 -0.3,1.1 -0.4,2.2 -0.2,2.8 0.1,0.3 0.2,0.5 0.3,0.6 0.1,0.1 0.2,0.2 0.4,0.2 0.3,0.2 0.9,0.5 1.8,0.7 l 0.5,0.1 c 0.1,0 0.2,0.1 0.3,0.1 h 0.2 0.6 0.7 0.7 c 0.9,-0.1 1.7,-0.4 2.4,-0.8 1.4,-0.8 2.4,-1.8 3.6,-2.7 1.2,-1 2.5,-2.2 3.7,-3.5 2.4,-2.6 4.5,-5.6 6,-7.8 0.8,-1.2 1.4,-2.1 1.9,-2.7 0.5,-0.7 0.7,-1 0.7,-1 h 1.4 c 0,0 0.2,0.4 0.6,1.2 0.4,0.8 0.8,1.9 1.2,3.4 0.8,3 1.3,7.6 -0.6,13 -0.9,2.7 -2.5,5.6 -5.1,8.2 -1.3,1.3 -2.9,2.4 -4.8,3.2 -1.8,0.9 -3.9,1.4 -6,1.6 -4.2,0.4 -8.5,-0.5 -11.8,-2.1 -0.9,-0.4 -1.9,-0.9 -2.9,-1.5 -1,-0.7 -2,-1.4 -2.8,-2.5 -0.9,-1 -1.6,-2.3 -2,-3.6 -0.4,-1.3 -0.6,-2.6 -0.6,-3.8 0.1,-2.4 0.7,-4.3 1.4,-6.1 0.7,-1.7 1.6,-3.2 2.5,-4.6 1.8,-2.8 3.8,-5.2 5.7,-7.4 2,-2.2 3.9,-4.3 5.7,-6.3 1.8,-1.9 3.6,-3.7 5.3,-5.3 1.7,-1.6 3.3,-2.9 4.8,-4.1 1.5,-1.2 2.8,-2.1 4,-2.8 2.4,-1.3 4.1,-1.7 4.1,-1.7 z"
   id="path250" />
		<path
   class="st13"
   d="m 464.3,337.8 c 0,0 -0.9,-1.2 -1.7,-3.5 -0.4,-1.1 -0.7,-2.5 -1,-4.1 -0.3,-1.6 -0.6,-3.4 -0.9,-5.3 -0.3,-2 -0.6,-4.1 -1,-6.3 -0.4,-2.2 -1,-4.5 -1.5,-6.9 -0.6,-2.4 -1.2,-4.8 -2,-7.3 -0.3,-1.2 -0.8,-2.4 -1.1,-3.6 -0.4,-1.2 -0.8,-2.3 -1.3,-3.6 -0.4,-1.2 -0.9,-2.4 -1.4,-3.6 -0.5,-1.2 -1,-2.3 -1.6,-3.5 -1.1,-2.2 -2.2,-4.4 -3.2,-6.4 -1,-2 -1.8,-4 -2.6,-5.9 -0.8,-1.9 -1.6,-3.6 -2.4,-5.3 -0.8,-1.6 -1.5,-3.2 -2.3,-4.5 -0.7,-1.4 -1.4,-2.6 -2,-3.6 -0.6,-1.1 -1,-1.9 -1.3,-2.5 -0.3,-0.6 -0.5,-0.9 -0.5,-0.9 l 0.7,-1 c 0,0 0.4,0 1.1,0.2 0.3,0.1 0.8,0.2 1.2,0.3 0.5,0.1 1,0.3 1.6,0.5 1.2,0.4 2.7,1.1 4.2,2 1.5,0.9 3.2,2.1 4.9,3.6 1.7,1.5 3.3,3.3 4.8,5.3 1.5,2 2.9,4.3 3.9,6.9 1,2.5 1.7,5.2 2.2,7.9 0.5,2.7 1.1,5.3 1.6,8 0.2,1.3 0.5,2.7 0.7,4.1 0.2,1.4 0.4,2.7 0.5,4.1 0.3,2.7 0.5,5.3 0.7,7.8 0.2,2.5 0.4,4.9 0.6,7.2 0.2,2.3 0.5,4.4 0.7,6.4 0.2,2 0.3,3.8 0.4,5.4 0,1.6 0.1,3 -0.1,4.2 -0.3,2.4 -1,3.8 -1,3.8 z"
   id="path252" />
		<path
   class="st8"
   d="m 423.6,236.7 c -1.7,0.8 -3.2,1.9 -3.9,2.2 -0.3,0.1 -1.2,0.2 -1.4,0.2 -0.7,0.1 -1.9,0.2 -2.5,0.6 l -2.4,2 c -1.2,1 -2.5,1.2 -3.5,0 v 0 c -1.1,-1.2 -0.5,-2.7 0.9,-3.6 l 1.7,-1.4 c 1.1,-0.7 1.8,-1.9 2.5,-3 1.4,-2.2 4.2,-3.7 6.4,-4.6 1.4,-0.6 3.3,0.3 5.8,1.5 1.2,0.6 2.9,2 1.2,2.3 -1.4,0.3 -5.3,-1.4 -7.6,2.1 -0.1,0.2 -0.4,0.6 -0.2,0.8 0.5,0.6 1.8,-0.4 2.7,-0.6 1.2,-0.3 2.1,0 2.3,0.4 0.2,0.4 -0.8,0.4 -2,1.1 z"
   id="path254" />
		<path
   class="st8"
   d="m 462.2,346 c 0,-1.9 -0.1,-3.8 0,-4.5 0,-0.3 0.4,-1.1 0.5,-1.3 0.3,-0.7 0.8,-1.7 0.6,-2.5 l -0.6,-3.1 c -0.3,-1.5 0.2,-2.7 1.6,-3.1 v 0 c 1.6,-0.3 2.6,0.9 2.8,2.5 l 0.5,2.1 c 0.1,1.3 0.8,2.4 1.5,3.6 1.3,2.3 1.3,5.4 1,7.9 -0.1,1.5 -1.8,2.8 -4.1,4.4 -1.1,0.8 -3.1,1.6 -2.6,0 0.4,-1.4 3.7,-4 1.8,-7.7 -0.1,-0.2 -0.4,-0.6 -0.6,-0.6 -0.7,0.1 -0.5,1.8 -0.7,2.7 -0.3,1.2 -0.9,1.8 -1.4,1.8 -0.8,0 -0.4,-0.9 -0.3,-2.2 z"
   id="path256" />
	</g>
	<path
   class="st14"
   d="m 424.6,248.6 c 0,0 4.6,6.4 10.4,5.5 0,0 -1.2,0.6 -1.5,1.5 0.1,0 -5.4,-0.4 -8.9,-7 z"
   id="path260" />
</g>
<g
   id="g268"
   transform="matrix(0.92138651,0,0,0.48331555,-23.587495,-13.67783)">
	<g
   id="g266">
		<path
   class="st13"
   d="m 429.6,199.1 c 0.2,-0.7 0.6,-0.9 1.3,-0.8 l 4.8,1.2 c 0.7,0.2 0.9,0.6 0.8,1.3 l -1.2,4.7 c -0.2,0.7 -0.6,0.9 -1.3,0.8 l -4.8,-1.2 c -0.7,-0.2 -0.9,-0.6 -0.8,-1.3 z m 15.8,-33.5 c 4.8,1.2 6.7,4.4 5.6,9.2 l -2.5,10.1 c -0.1,0.6 -0.4,0.9 -0.9,1.1 l -8,4.7 c -0.4,0.3 -0.7,0.6 -0.8,1.2 l -0.6,2.3 c -0.2,0.7 -0.6,0.9 -1.3,0.8 l -4.8,-1.2 c -0.7,-0.2 -0.9,-0.6 -0.8,-1.3 l 1.1,-4.5 c 0.1,-0.5 0.4,-0.8 0.8,-1.1 l 8.7,-5.2 1.7,-7.1 c 0.3,-1.3 -0.3,-2.2 -1.5,-2.6 l -2.5,-0.6 c -1.4,-0.3 -2.2,0.2 -2.6,1.5 l -1,4 c -0.1,0.5 -0.5,0.7 -1,0.6 l -5.3,-1.3 c -0.6,-0.1 -0.7,-0.5 -0.6,-1 l 1.3,-5.4 c 1.2,-4.8 4.4,-6.7 9.2,-5.6 z"
   id="path264" />
	</g>
</g>
<text
   xml:space="preserve"
   style="font-style:normal;font-weight:normal;font-size:27.3753px;line-height:1.25;font-family:sans-serif;fill:#000000;fill-opacity:1;stroke:none;stroke-width:0.684381"
   x="120.24216"
   y="77.2304"
   id="text7249"
   transform="scale(1.2739049,0.78498796)"><tspan
     sodipodi:role="line"
     id="tspan7247"
     x="120.24216"
     y="77.2304"
     style="stroke-width:0.684381">No se encontraron registros</tspan></text></svg>
